<svg xmlns="http://www.w3.org/2000/svg" width="299" height="50" viewBox="0 0 299 50"><g><g><path fill="#fff" d="M197.87 41.587a1.462 1.462 0 0 0-1.022-.414c-.417 0-.676.199-.676.499 0 .157.072.4.562.557l.416.128c.49.158 1.223.4 1.584.884.186.257.315.628.315 1.028 0 .556-.186 1.113-.689 1.569-.505.457-1.109.656-1.871.656-1.295 0-2.03-.614-2.419-1.027l.922-1.056c.346.4.863.713 1.38.713.49 0 .864-.242.864-.67 0-.385-.316-.543-.546-.628l-.403-.143c-.447-.156-.964-.355-1.338-.741a1.652 1.652 0 0 1-.475-1.185c0-.599.288-1.099.648-1.397.488-.385 1.122-.442 1.625-.442.46 0 1.194.057 1.987.655zm-8.778-1.47h1.755v.927c.275-.527.649-.784.778-.856.273-.17.618-.27 1.037-.27.301 0 .545.07.747.142l-.23 1.626c-.23-.157-.46-.228-.82-.228-.33 0-.82.07-1.166.5-.33.413-.346.941-.346 1.37v2.967h-1.755zm-3.21 2.268c-.143-.84-.834-1.24-1.48-1.24-.65 0-1.324.412-1.468 1.24zm1.612 2.183c-.186.457-.891 1.926-3.065 1.926-1.006 0-1.77-.285-2.387-.87-.691-.642-.979-1.441-.979-2.41 0-1.228.504-1.984.95-2.427.733-.713 1.596-.87 2.345-.87 1.266 0 2 .5 2.432 1.013.661.784.748 1.755.748 2.426v.142h-4.661c0 .371.1.771.3 1.042.188.257.576.585 1.252.585.664 0 1.166-.315 1.454-.813zm-9.324-2.183c-.144-.84-.835-1.24-1.482-1.24-.648 0-1.323.412-1.467 1.24zm1.61 2.183c-.185.457-.89 1.926-3.064 1.926-1.006 0-1.77-.285-2.387-.87-.691-.642-.979-1.441-.979-2.41 0-1.228.504-1.984.95-2.427.732-.713 1.596-.87 2.345-.87 1.266 0 2 .5 2.432 1.013.661.784.748 1.755.748 2.426v.142h-4.661c0 .371.1.771.3 1.042.188.257.576.585 1.252.585.664 0 1.166-.315 1.454-.813zm-11.497-4.45h1.755v.926c.275-.527.649-.784.778-.856.273-.17.618-.27 1.037-.27.301 0 .546.07.748.142l-.23 1.626c-.23-.157-.462-.228-.82-.228-.332 0-.821.07-1.166.5-.332.413-.347.941-.347 1.37v2.967h-1.755zm-5.18 4.834c1.007 0 1.727-.77 1.727-1.754s-.72-1.74-1.727-1.74c-1.008 0-1.726.756-1.726 1.74 0 .985.718 1.754 1.726 1.754zm1.555-4.835h1.755v6.177h-1.755v-.798c-.634.898-1.469.998-1.915.998-1.914 0-3.18-1.484-3.18-3.296 0-1.826 1.252-3.28 3.094-3.28.475 0 1.41.085 2 .998zm-6.448 5.835c-.576.3-1.339.556-2.374.556-1.684 0-2.706-.57-3.512-1.326-1.109-1.056-1.54-2.24-1.54-3.638 0-1.727.719-2.968 1.54-3.724.965-.898 2.16-1.256 3.526-1.256a4.87 4.87 0 0 1 2.36.585v2.17a3.095 3.095 0 0 0-2.318-1.07c-1.927 0-3.18 1.568-3.18 3.324 0 2.11 1.64 3.253 3.253 3.253.892 0 1.683-.385 2.245-1.043zm-15.93-1c1.007 0 1.727-.77 1.727-1.754s-.72-1.74-1.728-1.74c-1.007 0-1.726.756-1.726 1.74 0 .985.719 1.754 1.726 1.754zm1.524-4.835h1.756v5.95c0 .77.014 1.64-.705 2.468-.618.699-1.54 1.083-2.603 1.083-1.757 0-3.139-.984-3.354-2.596h1.899c.13.7.69 1.113 1.467 1.113 1.513 0 1.54-1.384 1.54-1.741v-.927c-.604.913-1.453 1.027-1.913 1.027-1.899 0-3.151-1.484-3.151-3.296 0-1.74 1.166-3.28 3.108-3.28 1.166 0 1.711.626 1.956.998zm-12.635 0h1.755v.798c.331-.456.921-.998 1.928-.998.548 0 1.353.158 1.843.756.43.527.488 1.142.488 1.741v3.88h-1.754v-3.367c0-.343-.015-.884-.332-1.212-.273-.285-.647-.315-.82-.315-.46 0-.82.158-1.078.543-.26.4-.275.841-.275 1.199v3.153h-1.755zm-3.626 0h1.754v6.177h-1.754zm1.928-2.611c0 .57-.475 1.041-1.05 1.041a1.052 1.052 0 0 1-1.051-1.041 1.052 1.052 0 0 1 2.101 0zm-7.109 7.446c1.008 0 1.727-.77 1.727-1.754s-.72-1.74-1.727-1.74c-1.007 0-1.726.756-1.726 1.74 0 .985.719 1.754 1.726 1.754zm1.555-9.343h1.755v10.685h-1.755v-.798c-.634.898-1.469.998-1.915.998-1.913 0-3.18-1.484-3.18-3.296 0-1.826 1.253-3.28 3.094-3.28.475 0 1.411.085 2 .998zm-8.403 0h1.754v10.685h-1.754zm-3.628 4.508h1.755v6.177h-1.755zm1.929-2.611a1.052 1.052 0 0 1-2.102 0 1.052 1.052 0 0 1 2.102 0zm-8.089 2.611v3.495c0 .328.03.771.374 1.084.217.186.561.314.894.314.33 0 .675-.128.89-.314.347-.313.375-.756.375-1.084v-3.495h1.756v3.78c0 .556-.073 1.3-.764 1.898-.575.5-1.495.7-2.257.7-.764 0-1.684-.2-2.26-.7-.691-.599-.763-1.342-.763-1.898v-3.78zm-8.03 4.665h.807c.345 0 .863-.015 1.28-.257.46-.271.59-.727.59-1.098 0-.3-.1-.813-.704-1.084-.404-.185-.879-.185-1.281-.185h-.691zm0-4.05h.533c.289 0 1.455-.03 1.455-1.243 0-.87-.678-1.198-1.44-1.198h-.547zm.504-3.953c.533 0 1.569 0 2.346.6.561.426.893 1.168.893 1.968 0 1.227-.821 1.726-1.08 1.869a2.258 2.258 0 0 1 1.251.598c.576.544.691 1.284.691 1.784 0 .556-.159 1.342-.82 1.926-.72.628-1.597.77-2.43.77h-3.224v-9.515zm-9.036 7.475c.633 0 1.123.486 1.123 1.113a1.1 1.1 0 0 1-1.123 1.112 1.1 1.1 0 0 1-1.123-1.112c0-.627.49-1.113 1.123-1.113m-3.599-2.667a1.46 1.46 0 0 0-1.02-.414c-.418 0-.677.199-.677.499 0 .157.073.4.561.557l.418.128c.488.158 1.222.4 1.582.884.188.257.316.628.316 1.028 0 .556-.187 1.113-.69 1.569-.503.457-1.108.656-1.87.656-1.296 0-2.03-.614-2.418-1.027l.921-1.056c.346.4.864.713 1.381.713.49 0 .864-.242.864-.67 0-.385-.316-.543-.546-.628l-.404-.143c-.446-.156-.964-.355-1.337-.741a1.647 1.647 0 0 1-.475-1.185c0-.599.287-1.099.646-1.397.49-.385 1.124-.442 1.626-.442a3.13 3.13 0 0 1 1.986.655zm-7.02-5.979h1.754v10.686h-1.755zm-3.626 0h1.754v10.686H74.92zm-3.628 4.509h1.755v6.177h-1.755zm1.929-2.611c0 .57-.475 1.041-1.051 1.041-.575 0-1.05-.47-1.05-1.041a1.052 1.052 0 0 1 2.101 0zm-7.743-1.897v6.762l2.332-2.254h2.273l-2.92 2.71 3.15 3.468h-2.331l-2.316-2.64-.188.171v2.469h-1.754V35.609zm-4.662 3.338c-.562-.742-1.223-.813-1.569-.813-1.006 0-1.324.628-1.324 1.113 0 .227.073.442.303.641.23.215.547.328 1.15.543.748.258 1.455.513 1.942.956.433.385.821 1.028.821 1.996 0 1.857-1.352 3.126-3.338 3.126-1.77 0-2.805-1.07-3.31-1.798l1.224-1.155a2.253 2.253 0 0 0 2.014 1.269c.85 0 1.483-.514 1.483-1.312 0-.342-.116-.614-.375-.857-.36-.328-.935-.513-1.482-.7-.503-.17-1.109-.399-1.597-.826-.317-.271-.762-.799-.762-1.77 0-1.397.949-2.795 3.078-2.795.605 0 1.742.114 2.72 1.113zm-13.686 6.005c1.008 0 1.727-.77 1.727-1.754s-.72-1.74-1.727-1.74c-1.007 0-1.726.756-1.726 1.74 0 .985.719 1.754 1.726 1.754zm1.525-4.835h1.756v5.95c0 .77.014 1.64-.705 2.468-.619.699-1.54 1.083-2.603 1.083-1.757 0-3.138-.984-3.354-2.596h1.9c.129.7.69 1.113 1.467 1.113 1.511 0 1.539-1.384 1.539-1.741v-.927c-.604.913-1.454 1.027-1.914 1.027-1.898 0-3.15-1.484-3.15-3.296 0-1.74 1.166-3.28 3.108-3.28 1.166 0 1.712.626 1.956.998zm-12.634 0h1.755v.798c.331-.456.921-.998 1.928-.998.548 0 1.354.158 1.843.756.432.527.489 1.142.489 1.741v3.88H40.28v-3.367c0-.343-.015-.884-.332-1.212-.272-.285-.646-.315-.82-.315-.46 0-.82.158-1.078.543-.26.4-.275.841-.275 1.199v3.153H36.02zm-3.626 0h1.755v6.177h-1.755zm1.928-2.611c0 .57-.475 1.041-1.05 1.041a1.052 1.052 0 0 1-1.05-1.041c0-.57.474-1.041 1.05-1.041.575 0 1.05.47 1.05 1.04zm-7.109 7.446c1.007 0 1.726-.77 1.726-1.754s-.719-1.74-1.726-1.74c-1.007 0-1.727.756-1.727 1.74 0 .985.72 1.754 1.727 1.754zm1.555-9.343h1.755v10.685h-1.755v-.798c-.634.898-1.469.998-1.915.998-1.915 0-3.18-1.484-3.18-3.296 0-1.826 1.253-3.28 3.094-3.28.474 0 1.41.085 2 .998zm-8.404 0h1.755v10.685h-1.755zm-3.626 4.508h1.755v6.177h-1.755zm1.927-2.611c0 .57-.475 1.041-1.051 1.041-.575 0-1.05-.47-1.05-1.041a1.052 1.052 0 0 1 2.101 0zm-8.088 2.611v3.495c0 .328.029.771.375 1.084.216.186.56.314.893.314.33 0 .675-.128.89-.314.347-.313.375-.756.375-1.084v-3.495h1.756v3.78c0 .556-.072 1.3-.763 1.898-.576.5-1.496.7-2.258.7-.764 0-1.684-.2-2.26-.7-.691-.599-.763-1.342-.763-1.898v-3.78zm-8.03 4.665h.807c.345 0 .862-.015 1.28-.257.46-.271.59-.727.59-1.098 0-.3-.1-.813-.705-1.084-.403-.185-.878-.185-1.28-.185h-.691zm0-4.05h.533c.287 0 1.454-.03 1.454-1.243 0-.87-.677-1.198-1.44-1.198h-.546zm.504-3.953c.533 0 1.569 0 2.346.6.561.426.891 1.168.891 1.968 0 1.227-.82 1.726-1.08 1.869a2.262 2.262 0 0 1 1.253.598c.576.544.691 1.284.691 1.784 0 .556-.159 1.342-.82 1.926-.72.628-1.597.77-2.432.77H.676v-9.515zM290.903 14.35l-3.097-7.899-3.163 7.9zm1.253 3.49h-8.865l-1.946 4.608H276.7L286.225.033h3.229l9.259 22.416h-4.614zM262.231.493h4.283V22.45h-4.283zm-14.404 5.005c-1.284-1.712-2.801-1.877-3.591-1.877-2.307 0-3.033 1.448-3.033 2.568 0 .526.165 1.02.693 1.48.528.495 1.253.758 2.637 1.25 1.713.594 3.328 1.187 4.449 2.207.988.889 1.878 2.37 1.878 4.608 0 4.279-3.098 7.21-7.646 7.21-4.054 0-6.427-2.47-7.579-4.149l2.801-2.666a5.153 5.153 0 0 0 4.614 2.93c1.943 0 3.394-1.186 3.394-3.028 0-.792-.263-1.417-.858-1.976-.822-.757-2.141-1.184-3.394-1.613-1.152-.395-2.535-.92-3.657-1.909-.725-.625-1.748-1.843-1.748-4.08 0-3.227 2.175-6.453 7.053-6.453 1.384 0 3.987.263 6.229 2.567zm-25.212 0c-1.287-1.712-2.802-1.877-3.594-1.877-2.307 0-3.03 1.448-3.03 2.568 0 .526.164 1.02.692 1.48.526.495 1.251.758 2.635 1.25 1.713.594 3.328 1.187 4.45 2.207.987.889 1.877 2.37 1.877 4.608 0 4.279-3.098 7.21-7.644 7.21-4.054 0-6.426-2.47-7.58-4.149l2.8-2.666a5.158 5.158 0 0 0 4.614 2.93c1.945 0 3.394-1.186 3.394-3.028 0-.792-.263-1.417-.855-1.976-.825-.757-2.144-1.184-3.394-1.613-1.155-.395-2.538-.92-3.66-1.909-.725-.625-1.745-1.843-1.745-4.08 0-3.227 2.175-6.453 7.05-6.453 1.386 0 3.99.263 6.229 2.567zM185.8.494v13.793c0 1.678.56 2.698 1.054 3.258.627.756 1.779 1.513 3.492 1.513 1.714 0 2.868-.757 3.495-1.513.495-.56 1.054-1.58 1.054-3.258V.494h4.283v13.43c0 2.073-.327 4.18-1.646 5.859-1.582 2.074-4.35 3.16-7.186 3.16-2.832 0-5.601-1.086-7.183-3.16-1.317-1.68-1.649-3.786-1.649-5.86V.494zm-26.53 10.105h1.22c.82 0 4.218-.099 4.218-3.325 0-3.258-3.363-3.291-4.154-3.291h-1.284m0-3.49h2.075c3.032 0 4.58.792 5.602 1.647 1.68 1.414 2.176 3.291 2.176 4.937 0 2.14-.858 4.016-2.572 5.168-.559.394-1.35.757-2.405.955l6.855 9.249h-5.339l-5.867-8.82h-.525M139.725 4.18v18.268h-4.285V4.18H130.5V.494h14.17V4.18zM99.55 22.449V0h2.966l13.38 15.274V.494h4.284v22.382h-2.966L103.834 7.604V22.45zM87.783 4.181h-7.91v4.904h7.58v3.686h-7.58v5.99h7.91v3.688H75.588V.494h12.195zM49.586.494v13.793c0 1.678.559 2.698 1.055 3.258.625.756 1.779 1.513 3.492 1.513 1.714 0 2.867-.757 3.493-1.513.495-.56 1.054-1.58 1.054-3.258V.494h4.285v13.43c0 2.073-.329 4.18-1.648 5.859-1.582 2.074-4.35 3.16-7.184 3.16-2.835 0-5.602-1.086-7.184-3.16-1.318-1.68-1.648-3.786-1.648-5.86V.494zm-21.655 0v18.268h6.788v3.688H23.647V.493zm-15.589 0V4.18H4.96v18.27H.676V.493z"/></g><g><path fill="#fa1100" d="M.71 12.77h11.205V9.074H.71z"/></g><g><path fill="#fa1100" d="M155.02 22.449h4.286V.493h-4.286z"/></g></g></svg>