<svg xmlns="http://www.w3.org/2000/svg" width="165" height="28" viewBox="0 0 165 28"><g><g><g><path fill="#121212" d="M109.193 23.288a.8.8 0 0 0-.565-.231c-.23 0-.373.111-.373.28 0 .087.04.223.31.311l.23.072c.27.088.675.224.874.495.103.144.174.352.174.575 0 .312-.103.624-.38.88-.279.255-.612.366-1.033.366-.714 0-1.12-.343-1.334-.575l.508-.59c.191.223.477.399.762.399.27 0 .477-.136.477-.376 0-.215-.175-.304-.302-.351l-.222-.08c-.247-.088-.532-.2-.738-.416a.932.932 0 0 1-.262-.663c0-.335.158-.615.357-.783.27-.215.62-.247.897-.247.254 0 .659.032 1.096.367zm-4.844-.822h.968v.519c.152-.296.358-.44.43-.48a1.05 1.05 0 0 1 .571-.151c.167 0 .301.04.413.08l-.127.91a.724.724 0 0 0-.452-.128c-.183 0-.454.04-.644.28-.183.232-.191.528-.191.767v1.662h-.968zm-1.772 1.27a.811.811 0 0 0-.817-.695.81.81 0 0 0-.81.695zm.89 1.222c-.103.256-.492 1.079-1.692 1.079-.555 0-.976-.16-1.317-.488-.382-.359-.54-.807-.54-1.35 0-.687.278-1.11.524-1.358.404-.4.88-.487 1.294-.487.699 0 1.104.28 1.342.567.365.44.413.983.413 1.358v.08h-2.572c0 .208.055.432.166.583.103.145.317.328.69.328a.885.885 0 0 0 .802-.456zm-5.146-1.222a.811.811 0 0 0-.817-.695.81.81 0 0 0-.81.695zm.89 1.222c-.104.256-.493 1.079-1.692 1.079-.555 0-.977-.16-1.318-.488-.381-.359-.54-.807-.54-1.35 0-.687.278-1.11.525-1.358.404-.4.88-.487 1.294-.487.698 0 1.103.28 1.342.567.365.44.412.983.412 1.358v.08h-2.572c0 .208.055.432.166.583.104.145.318.328.69.328a.885.885 0 0 0 .803-.456zm-6.346-2.492h.969v.519c.152-.296.358-.44.429-.48a1.05 1.05 0 0 1 .572-.151c.167 0 .302.04.413.08l-.127.91a.724.724 0 0 0-.453-.128c-.182 0-.453.04-.643.28-.183.232-.191.528-.191.767v1.662h-.969zm-2.858 2.707c.555 0 .953-.43.953-.982 0-.551-.398-.975-.953-.975-.556 0-.953.424-.953.975 0 .551.397.982.953.982zm.858-2.708h.968v3.46h-.968v-.447c-.35.503-.81.559-1.057.559-1.056 0-1.755-.831-1.755-1.846 0-1.023.691-1.837 1.707-1.837.262 0 .779.048 1.105.559zm-3.559 3.268a2.73 2.73 0 0 1-1.31.312c-.929 0-1.493-.32-1.938-.743-.611-.591-.85-1.255-.85-2.037 0-.967.397-1.663.85-2.086.533-.503 1.192-.703 1.946-.703.373 0 .817.064 1.302.328v1.215a1.696 1.696 0 0 0-1.278-.6c-1.064 0-1.755.879-1.755 1.862 0 1.181.905 1.821 1.795 1.821.492 0 .929-.215 1.238-.584zm-8.79-.56c.555 0 .953-.43.953-.982 0-.551-.398-.975-.954-.975-.556 0-.952.424-.952.975 0 .551.396.982.952.982zm.84-2.708h.97v3.332c0 .431.008.919-.39 1.383-.34.39-.849.606-1.436.606-.97 0-1.732-.551-1.85-1.453h1.047c.072.391.381.623.81.623.835 0 .85-.775.85-.975v-.52a1.21 1.21 0 0 1-1.056.576c-1.048 0-1.739-.831-1.739-1.846 0-.975.643-1.837 1.715-1.837.644 0 .945.35 1.08.559zm-6.972 0h.969v.448c.182-.256.508-.56 1.064-.56.302 0 .746.089 1.017.424.237.295.27.64.27.975v2.173h-.97v-1.886c0-.192-.007-.495-.182-.679a.62.62 0 0 0-.452-.176c-.254 0-.454.088-.596.304-.143.224-.151.471-.151.671v1.766h-.969zm-2.001 0h.968v3.46h-.968zm1.064-1.462c0 .32-.262.584-.58.584a.585.585 0 0 1-.58-.584c0-.319.263-.583.58-.583.318 0 .58.264.58.583zm-3.923 4.17c.556 0 .953-.43.953-.982 0-.551-.397-.975-.953-.975-.556 0-.952.424-.952.975 0 .551.396.982.952.982zm.858-5.232h.969v5.984h-.969v-.447c-.35.503-.81.559-1.056.559-1.056 0-1.755-.831-1.755-1.846 0-1.023.691-1.837 1.707-1.837.262 0 .779.048 1.104.56zm-4.637 0h.968v5.984h-.968zm-2.002 2.524h.969v3.46h-.969zm1.065-1.462c0 .32-.263.584-.58.584a.585.585 0 0 1-.58-.584c0-.319.262-.583.58-.583.317 0 .58.264.58.583zm-4.464 1.463v1.957c0 .183.016.432.206.607.12.104.31.176.493.176a.784.784 0 0 0 .492-.176c.191-.175.206-.424.206-.607v-1.957h.97v2.116c0 .312-.04.728-.422 1.063-.317.28-.825.392-1.246.392-.421 0-.929-.112-1.247-.392-.381-.335-.42-.751-.42-1.063v-2.116zm-4.431 2.612h.445c.19 0 .476-.008.706-.144.255-.152.326-.407.326-.615a.638.638 0 0 0-.389-.607c-.223-.104-.485-.104-.707-.104h-.381zm0-2.269h.294c.159 0 .802-.016.802-.695 0-.488-.373-.67-.794-.67h-.302zm.278-2.213c.294 0 .865 0 1.294.336.31.24.493.655.493 1.102 0 .687-.453.967-.596 1.047.349.055.556.208.69.335.318.304.382.72.382.999 0 .311-.088.751-.453 1.079-.397.35-.881.43-1.341.43h-1.78v-5.328zm-4.987 4.186c.35 0 .62.272.62.624 0 .351-.27.622-.62.622a.612.612 0 0 1-.62-.622c0-.352.271-.624.62-.624m-1.986-1.494a.799.799 0 0 0-.563-.231c-.23 0-.373.111-.373.28 0 .087.04.223.31.311l.23.072c.27.088.674.224.873.495.103.144.175.352.175.575 0 .312-.104.624-.381.88-.278.255-.612.366-1.033.366-.714 0-1.12-.343-1.334-.575l.509-.59c.19.223.476.399.762.399.27 0 .476-.136.476-.376 0-.215-.174-.304-.301-.351l-.223-.08c-.246-.088-.532-.2-.738-.416a.93.93 0 0 1-.262-.663c0-.335.159-.615.357-.783.27-.215.62-.247.897-.247.254 0 .659.032 1.096.367zm-3.874-3.347h.968v5.984h-.968zm-2.001 0h.968v5.984h-.968zm-2.002 2.524h.969v3.46h-.969zm1.065-1.462c0 .32-.262.584-.58.584a.585.585 0 0 1-.58-.584c0-.319.262-.583.58-.583.318 0 .58.264.58.583zm-4.273-1.062v3.787l1.286-1.262h1.255l-1.612 1.517 1.739 1.942h-1.286l-1.278-1.478-.104.096v1.382h-.968v-5.984zm-2.573 1.87c-.31-.416-.675-.456-.866-.456-.555 0-.73.352-.73.623 0 .128.04.248.167.36.127.12.302.183.635.304.412.144.802.286 1.071.535.239.215.453.575.453 1.118 0 1.04-.746 1.75-1.842 1.75-.977 0-1.548-.6-1.826-1.007l.675-.647c.254.52.739.71 1.112.71.468 0 .818-.287.818-.734a.623.623 0 0 0-.207-.48c-.199-.183-.516-.287-.818-.391-.278-.095-.612-.224-.881-.463-.175-.152-.42-.447-.42-.991 0-.783.523-1.566 1.698-1.566.334 0 .96.064 1.5.624zm-7.552 3.362c.556 0 .953-.43.953-.982 0-.551-.397-.975-.953-.975-.556 0-.953.424-.953.975 0 .551.397.982.953.982zm.841-2.708h.97v3.332c0 .431.007.919-.39 1.383-.341.39-.85.606-1.437.606-.969 0-1.73-.551-1.85-1.453h1.048c.071.391.381.623.81.623.834 0 .85-.775.85-.975v-.52a1.21 1.21 0 0 1-1.057.576c-1.048 0-1.739-.831-1.739-1.846 0-.975.644-1.837 1.716-1.837.643 0 .945.35 1.08.559zm-6.972 0h.969v.448c.182-.256.508-.56 1.064-.56.302 0 .747.089 1.017.424.238.295.27.64.27.975v2.173h-.97v-1.886c0-.192-.007-.495-.182-.679a.618.618 0 0 0-.452-.176c-.254 0-.453.088-.596.304-.143.224-.151.471-.151.671v1.766h-.969zm-2 0h.968v3.46h-.969zm1.063-1.462c0 .32-.262.584-.579.584a.585.585 0 0 1-.58-.584c0-.319.262-.583.58-.583.317 0 .58.264.58.583zm-3.923 4.17c.556 0 .953-.43.953-.982 0-.551-.397-.975-.953-.975-.556 0-.953.424-.953.975 0 .551.397.982.953.982zm.858-5.232h.969v5.984h-.969v-.447c-.35.503-.81.559-1.056.559-1.057 0-1.755-.831-1.755-1.846 0-1.023.691-1.837 1.707-1.837.261 0 .778.048 1.104.56zm-4.638 0h.969v5.984h-.969zm-2 2.524h.968v3.46h-.968zm1.063-1.462c0 .32-.262.584-.58.584a.585.585 0 0 1-.58-.584c0-.319.263-.583.58-.583.318 0 .58.264.58.583zm-4.463 1.463v1.957c0 .183.016.432.207.607.12.104.309.176.492.176a.783.783 0 0 0 .492-.176c.191-.175.206-.424.206-.607v-1.957h.97v2.116c0 .312-.04.728-.421 1.063-.318.28-.826.392-1.247.392-.421 0-.929-.112-1.247-.392-.381-.335-.42-.751-.42-1.063v-2.116zm-4.431 2.612h.445c.19 0 .476-.008.706-.144.255-.152.326-.407.326-.615a.638.638 0 0 0-.39-.607c-.222-.104-.484-.104-.706-.104h-.381zm0-2.269H1.7c.158 0 .802-.016.802-.695 0-.488-.373-.67-.794-.67h-.302zm.278-2.213c.294 0 .865 0 1.294.336.31.24.492.655.492 1.102 0 .687-.452.967-.596 1.047.35.055.556.208.691.335.318.304.382.72.382.999 0 .311-.088.751-.453 1.079-.397.35-.881.43-1.342.43H.373v-5.328zm158.848-12.56l-1.71-4.423-1.745 4.424zm.691 1.955h-4.892l-1.074 2.58h-2.563L157.95.02h1.782l5.11 12.553h-2.547zM144.71.276h2.364v12.295h-2.364zm-7.948 2.803c-.709-.959-1.546-1.051-1.982-1.051-1.273 0-1.673.81-1.673 1.438 0 .294.09.571.382.829.29.277.691.424 1.455.7.945.332 1.836.664 2.455 1.236.545.497 1.036 1.327 1.036 2.58 0 2.396-1.71 4.037-4.22 4.037-2.236 0-3.545-1.383-4.181-2.323l1.546-1.493a2.84 2.84 0 0 0 2.546 1.64c1.072 0 1.872-.663 1.872-1.695 0-.443-.145-.793-.473-1.106-.454-.424-1.182-.663-1.873-.903-.636-.222-1.399-.516-2.018-1.07-.4-.35-.964-1.032-.964-2.285 0-1.807 1.2-3.613 3.892-3.613.763 0 2.2.147 3.437 1.438zm-13.913 0c-.71-.959-1.546-1.051-1.984-1.051-1.273 0-1.672.81-1.672 1.438 0 .294.091.571.382.829.29.277.69.424 1.454.7.946.332 1.837.664 2.456 1.236.545.497 1.036 1.327 1.036 2.58 0 2.396-1.71 4.037-4.218 4.037-2.237 0-3.547-1.383-4.184-2.323l1.546-1.493a2.842 2.842 0 0 0 2.546 1.64c1.073 0 1.873-.663 1.873-1.695 0-.443-.145-.793-.472-1.106-.455-.424-1.183-.663-1.873-.903-.637-.222-1.4-.516-2.02-1.07-.4-.35-.963-1.032-.963-2.285 0-1.807 1.2-3.613 3.891-3.613.765 0 2.202.147 3.437 1.438zM102.533.276V8c0 .94.308 1.511.58 1.825.347.424.983.847 1.928.847.946 0 1.583-.423 1.929-.847.273-.314.581-.885.581-1.825V.276h2.364v7.521c0 1.161-.18 2.341-.909 3.281-.872 1.162-2.4 1.77-3.965 1.77-1.563 0-3.091-.608-3.964-1.77-.727-.94-.91-2.12-.91-3.28V.275zm-14.641 5.66h.673c.453 0 2.328-.056 2.328-1.863 0-1.824-1.856-1.843-2.292-1.843h-.71m0-1.954h1.146c1.673 0 2.527.443 3.091.923.928.792 1.201 1.843 1.201 2.764 0 1.199-.473 2.25-1.419 2.894-.308.22-.745.424-1.327.535l3.782 5.18H91.42l-3.238-4.94h-.29m-10.786-5.29v10.23H74.74V2.341h-2.727V.275h7.82v2.065zm-22.17 10.23V0h1.636l7.384 8.553V.277h2.364V12.81h-1.637L57.3 4.258v8.314zm-6.494-10.23h-4.365v2.746h4.183v2.064h-4.183v3.355h4.365v2.064h-6.73V.276h6.73zM27.363.275V8c0 .94.309 1.511.582 1.825.346.424.982.847 1.928.847.945 0 1.582-.423 1.927-.847.274-.314.582-.885.582-1.825V.276h2.365v7.521c0 1.161-.182 2.341-.91 3.281-.873 1.162-2.4 1.77-3.964 1.77-1.565 0-3.091-.608-3.965-1.77-.727-.94-.91-2.12-.91-3.28V.275zm-11.95 0v10.23h3.747v2.066h-6.11V.276zm-8.602 0v2.065H2.737v10.23H.373V.277z"/></g><g><path fill="#fa1100" d="M.392 7.15h6.183V5.083H.392z"/></g><g><path fill="#fa1100" d="M85.546 12.571h2.365V.276h-2.365z"/></g></g></g></svg>